<svg width="26400" height="14850" xmlns="http://www.w3.org/2000/svg" xmlns:xlink="http://www.w3.org/1999/xlink" xml:space="preserve" overflow="hidden"><g transform="translate(10008 4335)"><rect x="-10008" y="-4335" width="26400" height="14850" fill="#F6CA38"/><path d="M3092-1598.56C3463.59-1620.1 3834.26-1560.35 4196.19-1481.04 4630.88-1382.42 5055.53-1239.28 5461.66-1054.91 5709.65-937.905 5951.63-804.487 6169.37-636.269 6317.48-519.659 6458.81-385.977 6548.65-217.497 6608.1-108.11 6626.35 25.9662 6583.59 144.414 6524.4 309.218 6401.45 440.405 6273.41 554.521 5927.64 848.016 5512.64 1043.02 5093.34 1204.67 4585.38 1395.35 4056.04 1532.84 3516.91 1593.9 3143.37 1638.15 2766.18 1599.81 2397.08 1537.17 1894.72 1450.37 1400.71 1312.49 928.082 1120.37 675.276 1015.45 427.944 893.583 201.734 737.971 72.2665 647.624-50.9427 545.328-148.988 420.445-216.134 332.725-272.067 229.245-274.936 116.182-277.023 3.90417-227.999-101.674-166.46-192.546-86.7974-307.844 12.8141-408.039 120.116-497.335 448.675-765.616 830.688-958.129 1219.48-1121.49 1453.38-1218.01 1692.5-1301.52 1935.01-1373.49 2312.59-1483.66 2699.17-1569.94 3092-1598.56Z" fill="#41B349" fill-rule="evenodd"/><path d="M7094.12 345C7247.95 576.961 7379.88 823.496 7488.34 1080.27 7572.03 1271.4 7633.82 1471.07 7695.49 1670.22 7955.82 2577.71 7948.91 3561.75 7668.76 4463.73 7532.79 4918.99 7333.99 5357.06 7066.1 5749.44 6933.91 5940.05 6785.95 6122.25 6607.61 6271.25 6531.22 6333.21 6448.83 6391.5 6354.71 6422.22 6280.14 6446.5 6205.18 6409.09 6139.48 6376.8 5922.82 6259.57 5751 6076.31 5595.09 5888.19 5310.77 5532.18 5092.8 5124.18 4940.8 4694.52 4743.3 4155.63 4651.53 3578.16 4669.12 3004.23 4681.9 2621.56 4740.96 2240.6 4844.07 1872.25 5354.44 1712.88 5856.07 1509.01 6306.61 1216.66 6503.19 1087.23 6688.96 938.23 6843.44 759.433 6948.38 636.167 7038.2 497.935 7094.12 345Z" fill="#708FC5" fill-rule="evenodd"/><path d="M-1247.17 1646.01C-1119.93 1253.45-942.232 877.573-722.427 529-651.374 675.519-551.641 806.808-436.523 921.159-237.707 1117.7-2.64771 1272.88 242.059 1404.83 593.279 1594.28 968.226 1734.23 1348 1853.18 1559.85 2854.78 1495.45 3911.79 1174.86 4882.8 1039.54 5286.12 860.93 5678.94 610.617 6023.57 508.536 6159.19 396.679 6292.58 253.14 6385.27 203.729 6416.12 143.628 6445.4 85.4821 6420.85-61.0541 6368.86-184.255 6268.03-297.939 6164.31-661.153 5819.55-927.109 5383.14-1128.27 4926.26-1245.61 4644.77-1343.52 4354.1-1405.05 4054.76-1576.23 3257.31-1511.43 2415.36-1247.17 1646.01Z" fill="#DA4A37" fill-rule="evenodd"/><path d="M1932.62 2006C2472.02 2124.17 3028.63 2204.27 3580.81 2141.11 3802.34 2116.17 4022.69 2078.74 4240.43 2030.42 4044.07 2921.46 4084.49 3866.72 4374.21 4732.54 4545.79 5267.08 4805.65 5774.84 5152.87 6215.37 5372.7 6487.82 5628.25 6743.48 5946 6896.97 5578.97 7161.55 5174.77 7374.79 4747.63 7522.37 3629.19 7916.29 2362.1 7862.19 1282.39 7370.19 994.755 7241.12 720.815 7081.32 465 6896.58 650.409 6802.43 802.177 6654.06 936.603 6497.02 1257.87 6110.72 1480.57 5651.55 1651.76 5180.82 2007.85 4168.98 2111.89 3065.37 1932.62 2006Z" fill="#F6CA38" fill-rule="evenodd"/></g></svg>